HIERARCHY
ROOT Hips
{
	OFFSET 29.037800 20.009985 98.647102
	CHANNELS 6 Xposition Yposition Zposition Xrotation Yrotation Zrotation
	JOINT spine
	{
		OFFSET 0.000000 -0.477352 8.301041
		CHANNELS 3 Xrotation Yrotation Zrotation
		JOINT spine1
		{
			OFFSET 0.000000 -0.000002 10.456497
			CHANNELS 3 Xrotation Yrotation Zrotation
			JOINT spine2
			{
				OFFSET 0.000000 -0.000002 10.019203
				CHANNELS 3 Xrotation Yrotation Zrotation
				JOINT Neck
				{
					OFFSET 0.000000 -1.226414 25.723495
					CHANNELS 3 Xrotation Yrotation Zrotation
					JOINT Head
					{
						OFFSET 0.000000 -0.000002 7.771744
						CHANNELS 3 Xrotation Yrotation Zrotation
						End Site
						{
							OFFSET 0.000000 6.203938 18.811996
						}
					}
				}
				JOINT RightShoulder
				{
					OFFSET -4.218800 0.587437 10.819992
					CHANNELS 3 Xrotation Yrotation Zrotation
					JOINT RightArm
					{
						OFFSET 0.000000 -0.000002 14.191406
						CHANNELS 3 Xrotation Yrotation Zrotation
						JOINT RightArmRoll
						{
							OFFSET 0.000000 -0.000002 7.164093
							CHANNELS 3 Xrotation Yrotation Zrotation
							JOINT RightForeArm
							{
								OFFSET 0.000000 -0.000002 20.866501
								CHANNELS 3 Xrotation Yrotation Zrotation
								JOINT RightForeArmRoll
								{
									OFFSET 0.000000 -0.000002 8.039215
									CHANNELS 3 Xrotation Yrotation Zrotation
									JOINT RightHand
									{
										OFFSET 0.000000 -0.000002 16.132996
										CHANNELS 3 Xrotation Yrotation Zrotation
										End Site
										{
											OFFSET 0.000000 0.000000 0.100006
										}
									}
								}
							}
						}
					}
				}
				JOINT LeftShoulder
				{
					OFFSET 4.218800 0.587437 10.819992
					CHANNELS 3 Xrotation Yrotation Zrotation
					JOINT LeftArm
					{
						OFFSET 0.000000 -0.000002 14.191406
						CHANNELS 3 Xrotation Yrotation Zrotation
						JOINT LeftArmRoll
						{
							OFFSET 0.000000 -0.000002 7.164078
							CHANNELS 3 Xrotation Yrotation Zrotation
							JOINT LeftForeArm
							{
								OFFSET 0.000000 -0.000002 20.866501
								CHANNELS 3 Xrotation Yrotation Zrotation
								JOINT LeftForeArmRoll
								{
									OFFSET 0.000000 -0.000002 8.039215
									CHANNELS 3 Xrotation Yrotation Zrotation
									JOINT LeftHand
									{
										OFFSET 0.000000 -0.000002 16.132996
										CHANNELS 3 Xrotation Yrotation Zrotation
										End Site
										{
											OFFSET 0.000000 0.000000 0.100006
										}
									}
								}
							}
						}
					}
				}
			}
		}
	}
	JOINT RightUpLeg
	{
		OFFSET -7.357731 1.131809 -1.349213
		CHANNELS 3 Xrotation Yrotation Zrotation
		JOINT RightUpLegRoll
		{
			OFFSET 0.000000 -0.000004 18.916801
			CHANNELS 3 Xrotation Yrotation Zrotation
			JOINT RightLeg
			{
				OFFSET 0.000000 0.000004 -23.425598
				CHANNELS 3 Xrotation Yrotation Zrotation
				JOINT RightLegRoll
				{
					OFFSET 0.000000 -0.000004 23.502304
					CHANNELS 3 Xrotation Yrotation Zrotation
					JOINT RightFoot
					{
						OFFSET 0.000000 -0.000004 19.561707
						CHANNELS 3 Xrotation Yrotation Zrotation
						JOINT RightToeBase
						{
							OFFSET 0.000000 -0.000002 16.352600
							CHANNELS 3 Xrotation Yrotation Zrotation
							End Site
							{
								OFFSET 0.006931 0.912834 7.919434
							}
						}
					}
				}
			}
		}
	}
	JOINT LeftUpLeg
	{
		OFFSET 7.357731 1.131809 -1.349213
		CHANNELS 3 Xrotation Yrotation Zrotation
		JOINT LeftUpLegRoll
		{
			OFFSET 0.000000 -0.000004 18.916901
			CHANNELS 3 Xrotation Yrotation Zrotation
			JOINT LeftLeg
			{
				OFFSET 0.000000 -0.000004 23.425499
				CHANNELS 3 Xrotation Yrotation Zrotation
				JOINT LeftLegRoll
				{
					OFFSET 0.000000 -0.000004 23.719498
					CHANNELS 3 Xrotation Yrotation Zrotation
					JOINT LeftFoot
					{
						OFFSET 0.000000 -0.000004 19.344406
						CHANNELS 3 Xrotation Yrotation Zrotation
						JOINT LeftToeBase
						{
							OFFSET 0.000000 -0.000002 16.352600
							CHANNELS 3 Xrotation Yrotation Zrotation
							End Site
							{
								OFFSET -0.031063 0.912834 7.919434
							}
						}
					}
				}
			}
		}
	}
}
MOTION
Frames: 10
Frame Time: 0.041667
36.817501 5.329186 122.256989 -1.048629 2.098048 1.103486 -0.753021 -0.477158 0.125964 2.497877 -0.954627 0.251326 4.143032 -0.951544 0.262744 15.029474 0.342007 -1.827298 -13.145115 0.078049 -1.821513 -3.979909 -70.401027 -5.777710 -84.490601 -106.420467 -61.082901 -0.000001 -0.000001 -0.000001 0.941028 -13.444758 0.251627 -0.000002 -0.000006 -3.004549 -5.000233 -7.998922 0.000124 1.217785 62.658421 -0.914240 -49.637355 105.374349 38.877785 -0.000000 0.000001 -0.000001 21.174240 12.057587 -1.578364 -0.000000 -0.000003 3.000001 -5.000241 7.998773 -0.000162 -4.945667 -170.627401 4.854065 -179.999991 0.000006 -1.200004 160.747860 -4.469420 -1.680011 0.000000 0.000002 0.276142 68.727105 6.870839 2.194963 25.456960 -7.355625 0.000005 -4.194131 168.074099 -4.401269 -0.000005 -0.000003 -1.310050 -12.919650 4.622744 1.202670 -0.000004 -0.000002 -0.211747 66.679913 -6.940141 -2.166968 25.456950 7.355615 -0.000001 
36.792999 5.355974 122.225983 -1.008866 2.102404 1.099457 -0.756152 -0.472775 0.124089 2.491600 -0.945861 0.248954 4.136740 -0.942809 0.260267 15.090893 0.286543 -1.821456 -13.185423 0.107182 -1.813560 -3.952677 -70.466836 -5.753380 -84.811162 -106.408111 -61.396564 -0.000001 -0.000001 0.000000 0.921929 -13.456027 0.250088 -0.000003 -0.000006 -3.004540 -5.000230 -7.998922 0.000125 1.179246 62.616237 -0.875433 -49.623585 105.387968 38.893628 0.000000 0.000001 0.000000 21.266315 12.053289 -1.586137 -0.000002 -0.000003 3.000001 -5.000241 7.998774 -0.000162 -4.960424 -170.624614 4.820024 -179.999991 0.000005 -1.197997 160.863878 -4.449867 -1.668122 -0.000002 0.000002 0.274435 68.729065 6.870716 2.194616 25.456962 -7.355625 0.000004 -4.188586 168.063047 -4.364718 -0.000005 -0.000004 -1.308859 -12.757975 4.599441 1.189376 -0.000005 -0.000003 -0.208080 66.655652 -6.941676 -2.164918 25.456950 7.355616 -0.000002 
36.821400 5.370346 122.219986 -0.968791 2.105858 1.096974 -0.759353 -0.468246 0.122185 2.485172 -0.936807 0.246857 4.130329 -0.933780 0.258061 15.152621 0.226226 -1.816063 -13.227938 0.140563 -1.805919 -3.928869 -70.533185 -5.732893 -85.132659 -106.393461 -61.710875 -0.000002 0.000000 -0.000004 0.907044 -13.467679 0.248911 -0.000003 -0.000006 -3.004532 -5.000232 -7.998922 0.000126 1.145890 62.572620 -0.842735 -49.607042 105.402243 38.908408 0.000000 -0.000001 0.000000 21.357926 12.049554 -1.594095 0.000000 -0.000003 3.000000 -5.000241 7.998773 -0.000162 -4.974731 -170.617852 4.791334 -179.999991 0.000006 -1.195005 160.978966 -4.434970 -1.657017 -0.000002 0.000002 0.272874 68.730616 6.870600 2.194400 25.456957 -7.355625 0.000006 -4.184300 168.054004 -4.327393 -0.000005 -0.000004 -1.307850 -12.600203 4.574974 1.176379 -0.000005 -0.000002 -0.204457 66.631494 -6.943173 -2.163059 25.456947 7.355614 0.000001 
36.844795 5.394471 122.178986 -0.928437 2.108613 1.095806 -0.762618 -0.463618 0.120266 2.478635 -0.927555 0.244990 4.123778 -0.924552 0.256082 15.214863 0.161938 -1.811033 -13.272465 0.177425 -1.798529 -3.907903 -70.599554 -5.715585 -85.454737 -106.376931 -62.025610 -0.000000 0.000001 -0.000000 0.896062 -13.480014 0.248079 -0.000003 -0.000007 -3.004521 -5.000231 -7.998922 0.000126 1.117469 62.527937 -0.815798 -49.584790 105.417734 38.918848 -0.000000 0.000001 0.000000 21.449381 12.046360 -1.602264 -0.000000 -0.000003 3.000001 -5.000238 7.998772 -0.000162 -4.989012 -170.606077 4.767247 -179.999991 0.000005 -1.192997 161.092443 -4.423777 -1.647397 -0.000001 0.000003 0.271448 68.731736 6.870497 2.194308 25.456960 -7.355623 0.000003 -4.181344 168.044988 -4.289514 -0.000005 -0.000003 -1.307031 -12.446141 4.549565 1.163680 -0.000005 -0.000002 -0.200885 66.607445 -6.944715 -2.161097 25.456950 7.355613 0.000001 
36.852798 5.396823 122.159988 -0.887843 2.110896 1.095747 -0.765940 -0.458938 0.118345 2.471978 -0.918198 0.243306 4.117125 -0.915217 0.254288 15.277919 0.094562 -1.806250 -13.319198 0.216999 -1.791317 -3.889394 -70.665861 -5.701019 -85.776159 -106.358551 -62.339772 -0.000001 -0.000000 -0.000001 0.888664 -13.492840 0.247558 -0.000002 -0.000006 -3.004512 -5.000229 -7.998922 0.000126 1.093742 62.482721 -0.794282 -49.561847 105.433006 38.929872 0.000001 0.000000 0.000001 21.541088 12.043767 -1.610710 -0.000002 -0.000003 3.000001 -5.000240 7.998774 -0.000162 -5.003663 -170.591351 4.747314 -179.999991 0.000005 -1.190005 161.203734 -4.415338 -1.636951 -0.000001 0.000002 0.270142 68.732658 6.870376 2.194329 25.456967 -7.355624 0.000005 -4.179750 168.036983 -4.251563 -0.000005 -0.000003 -1.306359 -12.295995 4.523446 1.151317 -0.000005 -0.000003 -0.197372 66.583505 -6.946256 -2.159133 25.456955 7.355615 -0.000001 
36.863701 5.426063 122.130989 -0.847057 2.112898 1.096584 -0.769315 -0.454251 0.116432 2.465210 -0.908829 0.241761 4.110363 -0.905866 0.252630 15.341802 0.024978 -1.801633 -13.368241 0.258516 -1.784235 -3.872839 -70.731738 -5.688588 -86.096133 -106.338846 -62.652881 -0.000001 0.000000 -0.000001 0.884531 -13.506353 0.247323 -0.000002 -0.000006 -3.004501 -5.000230 -7.998922 0.000124 1.074464 62.437669 -0.777846 -49.537675 105.447910 38.940756 -0.000000 -0.000001 0.000000 21.633145 12.041673 -1.619347 0.000001 -0.000004 3.000001 -5.000242 7.998774 -0.000162 -5.019114 -170.572636 4.730798 -179.999991 0.000005 -1.187998 161.312416 -4.410582 -1.628032 -0.000002 0.000003 0.268946 68.733348 6.870245 2.194362 25.456960 -7.355625 0.000006 -4.179601 168.029006 -4.213825 -0.000005 -0.000003 -1.305829 -12.149668 4.496826 1.139293 -0.000005 -0.000003 -0.193920 66.559668 -6.947764 -2.157255 25.456948 7.355614 0.000001 
36.887299 5.434731 122.094986 -0.806119 2.114840 1.098092 -0.772732 -0.449604 0.114542 2.458363 -0.899538 0.240310 4.103503 -0.896595 0.251068 15.407005 -0.045929 -1.797083 -13.419589 0.301209 -1.777213 -3.857719 -70.797069 -5.677713 -86.413388 -106.317932 -62.963792 0.000001 0.000001 0.000000 0.883348 -13.520653 0.247360 -0.000003 -0.000007 -3.004493 -5.000232 -7.998921 0.000124 1.059392 62.393177 -0.766146 -49.511819 105.462287 38.950725 0.000001 -0.000000 -0.000000 21.725963 12.040037 -1.628197 -0.000001 -0.000003 3.000001 -5.000241 7.998773 -0.000162 -5.035744 -170.551941 4.717237 -179.999991 0.000005 -1.186003 161.417765 -4.406659 -1.619695 -0.000002 0.000002 0.267850 68.733826 6.870098 2.194505 25.456967 -7.355625 0.000006 -4.180953 168.020044 -4.176611 -0.000005 -0.000004 -1.305409 -12.007164 4.469946 1.127627 -0.000005 -0.000002 -0.190537 66.535830 -6.949257 -2.155475 25.456952 7.355614 0.000000 
36.863800 5.464585 122.020996 -0.765071 2.116941 1.100054 -0.776195 -0.445042 0.112686 2.451416 -0.890421 0.238906 4.096561 -0.887494 0.249556 15.473534 -0.117277 -1.792514 -13.473450 0.344308 -1.770198 -3.843561 -70.861375 -5.667818 -86.726798 -106.296205 -63.271519 -0.000001 0.000001 0.000001 0.884790 -13.535749 0.247632 -0.000002 -0.000006 -3.004480 -5.000231 -7.998922 0.000125 1.048277 62.349751 -0.758836 -49.489539 105.474773 38.965017 0.000001 -0.000002 -0.000001 21.819856 12.038935 -1.637320 0.000000 -0.000003 3.000001 -5.000242 7.998774 -0.000162 -5.053981 -170.530289 4.706081 -179.999991 0.000005 -1.182997 161.519330 -4.405482 -1.610630 -0.000002 0.000002 0.266843 68.734120 6.870010 2.194669 25.456962 -7.355623 0.000004 -4.183842 168.011111 -4.140390 -0.000005 -0.000004 -1.305100 -11.868484 4.443006 1.116321 -0.000005 -0.000002 -0.187230 66.512082 -6.950716 -2.153685 25.456953 7.355613 -0.000001 
36.916298 5.509285 121.992973 -0.723946 2.119400 1.102256 -0.779694 -0.440611 0.110878 2.444409 -0.881565 0.237507 4.089551 -0.878658 0.248051 15.541783 -0.188182 -1.787855 -13.529716 0.387044 -1.763137 -3.829878 -70.924473 -5.658364 -87.035694 -106.273960 -63.575701 -0.000000 0.000001 -0.000000 0.888553 -13.551736 0.248120 -0.000003 -0.000006 -3.004471 -5.000231 -7.998922 0.000126 1.040887 62.308107 -0.755584 -49.467290 105.485783 38.979773 0.000000 0.000001 0.000000 21.915229 12.038324 -1.646726 0.000000 -0.000004 3.000001 -5.000242 7.998773 -0.000162 -5.074218 -170.507668 4.696686 -179.999991 0.000006 -1.181003 161.616537 -4.406058 -1.603526 -0.000001 0.000002 0.265909 68.734393 6.869850 2.194921 25.456964 -7.355625 0.000005 -4.188342 168.001207 -4.105461 -0.000005 -0.000004 -1.304870 -11.733530 4.416243 1.105381 -0.000004 -0.000002 -0.184002 66.488326 -6.952167 -2.151892 25.456952 7.355616 -0.000002 
36.903599 5.531255 121.924988 -0.682794 2.122429 1.104480 -0.783222 -0.436359 0.109128 2.437333 -0.873067 0.236065 4.082481 -0.870177 0.246507 15.611760 -0.257758 -1.783006 -13.588687 0.428647 -1.755970 -3.816180 -70.986163 -5.648770 -87.339132 -106.251290 -63.875670 -0.000001 -0.000001 -0.000002 0.894305 -13.568708 0.248803 -0.000002 -0.000006 -3.004461 -5.000230 -7.998923 0.000126 1.036969 62.268533 -0.756041 -49.447561 105.494601 38.997296 0.000001 0.000000 -0.000000 22.012074 12.038106 -1.656330 -0.000001 -0.000004 3.000001 -5.000240 7.998773 -0.000162 -5.096890 -170.484090 4.688414 -179.999991 0.000005 -1.178995 161.708813 -4.406507 -1.595810 -0.000002 0.000002 0.265039 68.734468 6.869747 2.195197 25.456964 -7.355626 0.000005 -4.194518 167.989309 -4.072138 -0.000005 -0.000004 -1.304699 -11.602511 4.389877 1.094829 -0.000004 -0.000003 -0.180862 66.464557 -6.953528 -2.150283 25.456947 7.355613 0.000001 
